<svg width="1440" height="406" viewBox="0 0 1440 406" fill="none" xmlns="http://www.w3.org/2000/svg">
<g clip-path="url(#clip0_4328_3559)">
<path d="M-109.608 417.276C-41.9069 326.345 40.836 238.669 146.528 195.593C205.061 171.724 267.634 165.303 330.064 172.545C363.413 176.416 396.562 183.571 428.765 193.247C458.905 202.308 488.501 214.36 514.573 232.57C540.645 250.779 562.191 275.205 587.804 294.265C609.349 310.276 633.244 322.767 658.313 331.858C709.827 350.536 765.753 354.73 819.874 348.777C941.123 335.464 1048.08 269.839 1147.35 201.722C1251.09 130.555 1353.89 51.7052 1475.26 14.8461C1489.9 10.389 1504.71 6.66496 1519.69 3.58604C1521.96 3.11687 1520.98 -0.401892 1518.75 0.037954C1394.69 25.5783 1288.14 99.3551 1185.28 170.991C1082.89 242.334 975.676 317.372 851.418 340.42C795.177 350.83 736.243 350.683 680.919 335.2C653.987 327.664 628.03 316.404 604.364 301.215C577.032 283.65 554.971 259.752 529.758 239.431C480.823 199.962 417.047 182.779 356.537 172.604C296.027 162.429 232.451 163.191 172.858 182.163C66.3063 216.061 -19.3876 297.227 -88.5214 384.023C-96.7441 394.345 -104.766 404.843 -112.645 415.428C-114.049 417.305 -110.926 419.123 -109.551 417.276H-109.608Z" fill="white" fill-opacity="0.15"/>
</g>
<circle cx="298" cy="167" r="6" fill="#4AF6CD" fill-opacity="0.75"/>
<circle cx="624" cy="316" r="4" fill="#4AF6CD" fill-opacity="0.75"/>
<circle cx="1343" cy="71" r="6" fill="#4AF6CD" fill-opacity="0.75"/>
<defs>
<clipPath id="clip0_4328_3559">
<rect width="1633.98" height="642.046" fill="white" transform="translate(-113)"/>
</clipPath>
</defs>
</svg>
